<svg xmlns="http://www.w3.org/2000/svg" version="1.1" xmlns:xlink="http://www.w3.org/1999/xlink" width="62" height="45"><svg width="62" height="45" viewBox="0 0 62 45" fill="none" xmlns="http://www.w3.org/2000/svg">
<path d="M49.2855 33.1414C49.2855 37.2597 47.9503 40.7735 45.8729 42.1978C42.6117 44.4337 37.3293 43.1166 31.0414 43.1166C24.5917 43.1166 13.2399 44.3606 9.77837 41.9353C7.71549 40.49 12.0097 37.0934 12.0097 33.1414C12.0097 22.558 20.3542 13.9784 30.6476 13.9784C40.9411 13.9784 49.2855 22.558 49.2855 33.1414Z" fill="#F69C1F"></path>
<path fill-rule="evenodd" clip-rule="evenodd" d="M30.3051 1.2049C29.8273 4.38936 29.4273 8.31198 29.3887 10.1884L29.3656 11.3019L30.6474 11.308L31.9292 11.3137L31.9108 10.5533C31.8473 7.90011 30.8682 0 30.6028 0C30.5319 0 30.4143 0.475923 30.3051 1.2049ZM22.0272 1.69185C21.9818 2.04492 22.1464 3.57087 22.4417 5.5373C22.7722 7.7371 23.6899 12.1616 23.8453 12.3052C23.9173 12.3716 26.3105 11.8401 26.4321 11.7309C26.504 11.6663 25.1854 8.2125 24.5895 6.90443C24.4811 6.66634 24.3924 6.41984 24.3924 6.35711C24.3924 6.29437 24.3391 6.27573 24.274 6.31615C24.2034 6.35973 24.1834 6.3445 24.2244 6.27783C24.3034 6.15025 23.9897 5.43466 23.8545 5.43466C23.8054 5.43466 23.7926 5.3903 23.8259 5.33596C23.8816 5.24592 23.4259 4.22241 23.2765 4.10165C23.2416 4.07357 23.198 3.98116 23.1794 3.89664C23.1059 3.56168 22.547 2.46099 22.4506 2.46099C22.3942 2.46099 22.3774 2.38408 22.4134 2.29036C22.4572 2.17644 22.4394 2.14415 22.3601 2.19324C22.2868 2.23839 22.2614 2.2145 22.2937 2.13024C22.3225 2.05516 22.2774 1.90264 22.1931 1.7916C22.1091 1.6803 22.0346 1.63541 22.0272 1.69185ZM38.9859 1.92259C38.9226 2.07773 38.4498 3.09573 37.9356 4.18461C37.4211 5.27348 37.0247 6.20406 37.0546 6.25236C37.0843 6.30067 37.0685 6.35553 37.0192 6.37443C36.8906 6.42378 36.1718 8.09962 36.2353 8.20226C36.2645 8.24951 36.2477 8.30385 36.1978 8.32275C36.1479 8.34165 35.8285 9.0953 35.4877 9.9978C34.8341 11.7282 34.8302 11.786 35.3633 11.8482C35.4486 11.8582 35.5872 11.8899 35.672 11.9188C35.8033 11.9634 36.0957 12.048 37.2313 12.369C37.5219 12.4512 38.0949 9.95475 38.7407 5.7935C38.9155 4.66552 39.1043 3.46061 39.1599 3.11568C39.3518 1.92469 39.255 1.26213 38.9859 1.92259ZM14.2681 5.44595C14.2203 6.08226 18.2947 14.3559 18.6561 14.3559C18.7092 14.3559 18.7472 14.3903 18.7404 14.4326C18.6695 14.8817 18.9037 14.8626 19.688 14.3559C20.0369 14.1302 20.3642 13.9456 20.4152 13.9456C20.4661 13.9456 20.4798 13.8999 20.4454 13.8443C20.4094 13.7863 20.4504 13.769 20.5409 13.8036C20.6341 13.8393 20.7249 13.7968 20.7619 13.7004C20.7966 13.6104 20.8614 13.5592 20.9061 13.5868C20.9504 13.6143 21.0153 13.5632 21.0499 13.4731C21.1274 13.2715 19.4972 11.1484 19.3394 11.2458C19.2809 11.282 19.2641 11.2618 19.3019 11.2006C19.3757 11.0814 17.0821 8.29125 16.8351 8.19937C16.7535 8.16892 16.6952 8.10671 16.7054 8.06129C16.7233 7.98333 15.7255 6.80048 14.7301 5.71922C14.3552 5.31207 14.2815 5.26849 14.2681 5.44595ZM46.4744 5.7704C45.5932 6.68524 43.67 8.90472 43.67 9.00684C43.67 9.06039 43.6049 9.12917 43.5251 9.15988C43.3204 9.23837 40.4914 12.799 40.4914 12.978C40.4914 13.0589 40.427 13.1253 40.3485 13.1253C39.8535 13.1253 40.1551 13.5739 40.9017 13.9477C41.1552 14.0748 41.5558 14.3108 41.7915 14.4725C42.0273 14.6339 42.258 14.7654 42.3042 14.7649C42.446 14.7628 43.1637 13.5259 43.0912 13.4085C43.0537 13.3479 43.071 13.3282 43.1298 13.3644C43.2214 13.4211 43.4768 12.9835 43.491 12.7452C43.4939 12.7006 43.5535 12.6176 43.6238 12.5614C43.7619 12.4507 44.4578 11.1218 44.5101 10.8693C44.5274 10.7848 44.5733 10.6916 44.6119 10.6625C44.7768 10.5375 46.2851 7.35279 46.3581 6.97531C46.3744 6.89209 46.4452 6.76189 46.5156 6.68602C46.6314 6.56133 46.6886 6.33348 46.656 6.12689C46.6492 6.08462 46.6807 6.04997 46.7259 6.04997C46.8167 6.04997 47.0968 5.34094 47.0317 5.27584C47.0091 5.25327 46.7584 5.47587 46.4744 5.7704ZM7.94563 10.5435C7.8926 10.6296 8.98357 12.0375 9.6548 12.7494C9.85851 12.9652 10.0391 13.1804 10.0564 13.2279C10.0963 13.3377 12.0155 15.4928 13.4086 16.9928C13.9961 17.6252 14.5232 18.1142 14.5797 18.079C14.6364 18.0441 14.6516 18.0657 14.6138 18.1268C14.576 18.188 14.5941 18.2686 14.654 18.3056C14.7506 18.3652 16.6721 16.5352 16.5836 16.4678C16.564 16.4528 16.1789 16.1412 15.7276 15.7753C14.1431 14.4906 12.4321 13.2544 10.3956 11.9238C10.0008 11.666 9.47892 11.3224 9.2361 11.1602C8.99329 10.9982 8.74338 10.8549 8.68064 10.8418C8.61817 10.8289 8.48219 10.7373 8.37876 10.6386C8.17453 10.4435 8.02753 10.4112 7.94563 10.5435ZM52.9137 10.6409C52.8115 10.7383 52.6708 10.8307 52.6007 10.8462C52.4128 10.888 51.8733 11.304 51.8733 11.4075C51.8733 11.4565 51.8277 11.4684 51.7717 11.434C51.6636 11.367 50.7456 11.9519 50.7456 12.0876C50.7456 12.132 50.6837 12.1682 50.6078 12.1682C50.5322 12.1682 49.9439 12.5299 49.3005 12.9717C47.5738 14.158 47.054 14.5538 47.054 14.6838C47.054 14.7478 47.0246 14.7707 46.9886 14.7347C46.9115 14.6578 46.5768 14.8878 45.4645 15.7819C45.0135 16.1444 44.6269 16.4547 44.6059 16.4709C44.5376 16.5237 45.7543 17.5868 45.8496 17.5577C45.9 17.5422 45.9166 17.5695 45.8864 17.6183C45.8562 17.6672 45.9911 17.8619 46.1862 18.051L46.5408 18.3948L47.5491 17.3238C49.1753 15.596 52.8031 11.4468 53.2683 10.7827C53.4623 10.506 53.1754 10.3913 52.9137 10.6409ZM28.9041 14.1131C27.4201 14.2554 24.8048 14.8652 24.7169 15.0896C24.698 15.1379 24.6415 15.1521 24.5914 15.1211C24.2774 14.9271 19.8805 17.5616 19.8805 17.5616C19.8805 17.5616 16.0865 20.7742 16.0865 21.1958C16.0865 21.2688 16.0455 21.3286 15.9951 21.3286C15.945 21.3286 15.6701 21.673 15.3843 22.0941C14.8272 22.9152 14.5075 23.4819 14.6009 23.4819C14.633 23.4819 14.5707 23.5767 14.4629 23.6925C14.2027 23.9715 13.506 25.6274 13.5908 25.7644C13.6278 25.8245 13.6084 25.8419 13.5472 25.8041C13.4512 25.7447 13.28 26.1787 13.2698 26.5071C13.2679 26.5632 13.2401 26.6325 13.2076 26.6609C12.9616 26.8738 12.2043 30.4654 12.1919 31.4781C12.1909 31.5616 12.6177 31.2041 13.1404 30.6835C13.7058 30.1204 14.1731 29.7377 14.2941 29.739C14.4172 29.7403 15.264 30.4859 16.4453 31.6335C17.5168 32.6744 18.4167 33.5238 18.4451 33.5209C18.5065 33.5146 21.2468 30.5415 24.4365 27.0197C25.7136 25.6098 26.8458 24.3949 26.9524 24.3204C27.3088 24.0705 27.0316 23.7975 34.7451 31.9929C35.6211 32.9235 36.7291 34.1 37.2077 34.6077C37.6862 35.1154 38.2687 35.7383 38.5021 35.9919L38.9266 36.4534L38.652 37.0496L38.3774 37.6457L37.6143 36.7773C37.1945 36.2998 35.2552 34.1859 33.3047 32.0795C31.3543 29.9734 29.1897 27.6138 28.4946 26.836C27.7995 26.0584 27.1994 25.4583 27.161 25.503C27.123 25.5476 26.8474 26.2994 26.5491 27.1736C25.9596 28.9011 24.368 33.3109 23.3014 36.1728L22.631 37.9712L24.238 39.5804L25.8448 41.1898L32.4246 41.2486C36.0435 41.2809 39.0224 41.289 39.0447 41.2667C39.067 41.2444 38.8853 40.6601 38.641 39.9678C38.097 38.4285 38.0944 38.4666 38.8334 37.3564C39.9892 35.6205 39.9881 35.5806 38.7727 34.9996C36.9538 34.1305 36.4409 33.3503 36.4412 31.4545L36.4414 30.2496H36.1807C36.0374 30.2496 35.6681 30.1861 35.3602 30.1081C35.0522 30.0301 34.6272 29.9356 34.4157 29.8984C34.0715 29.8375 33.8402 29.5319 34.1385 29.5319C34.2049 29.5319 34.2206 29.3988 34.1799 29.1817C34.0986 28.7483 34.3427 28.5567 35.1079 28.4533C36.1907 28.3068 37.7227 27.8574 37.7227 27.6862C37.7227 27.6479 37.8267 27.5692 37.9534 27.5114L38.1842 27.4061L38.1611 28.469C38.1482 29.0702 38.1795 29.5319 38.2333 29.5319C38.2855 29.5319 38.8727 29.3306 39.5379 29.0846C40.2034 28.8386 41.0014 28.5559 41.3117 28.4564C42.2276 28.1629 42.4835 27.8017 42.7507 26.4265C42.8198 26.0702 42.9521 25.7531 43.0823 25.6319L43.2986 25.4303H42.9607C42.7003 25.4303 42.6366 25.3946 42.6828 25.2741C42.7156 25.1882 42.6284 24.8596 42.4885 24.5435C42.1798 23.845 42.1745 23.9285 42.5371 23.741C43.3506 23.3202 44.3841 24.1582 43.9811 24.9115C43.9105 25.0431 43.9063 25.1226 43.9696 25.1226C44.5122 25.1226 45.1642 26.7307 45.3677 28.5709C45.4587 29.3959 45.542 29.5303 45.8108 29.287C46.1208 29.0064 47.1351 30.0191 47.4659 30.94C47.6635 31.4907 47.7893 31.6564 48.3744 32.1386L49.0535 32.698L49.0882 32.3197C49.2073 31.0222 48.2324 26.0456 47.8591 26.0456C47.8045 26.0456 47.7851 26.0044 47.8161 25.9542C47.8882 25.8374 47.4735 24.7995 47.2952 24.6511C47.2207 24.5892 47.1845 24.5138 47.2144 24.4837C47.2446 24.4535 47.17 24.2506 47.0488 24.0324C46.9275 23.8143 46.7332 23.4646 46.6169 23.2554C46.5009 23.0462 46.3599 22.9034 46.3038 22.938C46.2478 22.9727 46.2339 22.9493 46.2728 22.8863C46.6429 22.2875 41.0668 16.615 40.4704 16.9836C40.4021 17.0259 40.3861 17.0067 40.4302 16.935C40.4956 16.8295 40.373 16.7707 40.158 16.8046C40.1157 16.8114 40.0813 16.7739 40.0813 16.7214C40.0813 16.4389 36.9743 15.0747 35.4045 14.6678C33.5961 14.1989 30.6406 13.9467 28.9041 14.1131ZM3.16645 17.1065C3.16645 17.2718 5.76499 19.1068 5.99941 19.1068C6.07186 19.1068 6.11071 19.1396 6.08603 19.1797C6.03222 19.2666 6.84993 19.8247 7.03079 19.8247C7.09983 19.8247 7.13868 19.8533 7.11716 19.8882C7.09537 19.9234 7.52247 20.2502 8.06612 20.6146C9.14423 21.3373 9.52381 21.5567 9.52381 21.4567C9.52381 21.421 9.58156 21.4675 9.65218 21.5596C9.76715 21.7103 10.6633 22.3043 11.3894 22.7112L11.6656 22.8661L12.2352 21.8985C12.5484 21.3664 12.8508 20.9023 12.9075 20.8674C12.964 20.8325 13.0104 20.7577 13.0104 20.7012C13.0104 20.6448 12.9642 20.6272 12.9078 20.6621C12.8513 20.697 12.8051 20.6828 12.8051 20.6306C12.8051 20.502 11.3824 19.873 11.2611 19.9481C11.208 19.9809 11.1645 19.956 11.1645 19.893C11.1645 19.83 11.1222 19.8045 11.0708 19.8363C11.019 19.8683 10.9616 19.8536 10.9427 19.8037C10.9059 19.7068 8.10129 18.6319 6.90899 18.2578C6.51418 18.1339 6.0989 17.9929 5.98628 17.9446C5.54527 17.7559 4.47661 17.4278 4.23799 17.4081C4.09992 17.3968 3.98678 17.3561 3.98678 17.3183C3.98678 17.2802 3.87547 17.2212 3.73976 17.1873C3.60404 17.1532 3.4195 17.097 3.32972 17.0626C3.23995 17.0282 3.16645 17.0479 3.16645 17.1065ZM56.1288 17.6446C53.5765 18.4883 51.976 19.0865 51.976 19.1968C51.976 19.248 51.9342 19.2643 51.8833 19.2328C51.7256 19.1351 49.105 20.1652 49.105 20.3248C49.105 20.376 49.0601 20.3901 49.0052 20.3563C48.9081 20.2962 48.2846 20.5655 48.2846 20.6676C48.2846 20.6957 48.5377 21.1446 48.8472 21.6646C49.1567 22.1849 49.4478 22.676 49.4943 22.7561C49.5607 22.8711 49.8901 22.7115 51.0593 21.998C51.8736 21.5011 52.6897 21.0041 52.873 20.8939C53.0562 20.7836 53.1762 20.6445 53.1391 20.5849C53.1024 20.5253 53.12 20.5059 53.1783 20.5421C53.2906 20.6114 55.808 18.9828 56.0905 18.6579C56.1821 18.5523 56.2813 18.4904 56.311 18.5198C56.3407 18.5495 56.5404 18.398 56.7552 18.1833C56.9702 17.9683 57.1048 17.8591 57.0547 17.9402C56.9518 18.1066 57.3836 17.8087 57.9233 17.3411C58.4166 16.914 58.257 16.9408 56.1288 17.6446ZM0.807833 24.9953C0.807833 25.1008 0.972422 25.1693 3.82612 26.2566C4.83756 26.642 5.70278 26.9339 5.74872 26.9055C5.79465 26.8769 5.83246 26.8971 5.83246 26.9504C5.83246 27.0035 5.91304 27.0709 6.01175 27.1001C6.11045 27.1295 6.9187 27.4088 7.80781 27.7209C9.39886 28.2795 9.88371 28.3803 9.78842 28.1322C9.76217 28.0635 9.78422 27.9926 9.83777 27.9747C9.89132 27.9569 9.94618 27.7463 9.9601 27.5072C9.97401 27.2678 10.0126 27.0717 10.0459 27.0714C10.1759 27.0704 10.4817 25.8343 10.3777 25.7303C10.0619 25.4145 0.807833 24.7039 0.807833 24.9953ZM58.6413 24.9869C56.4454 25.0683 54.0059 25.2622 51.7379 25.5358C50.6855 25.6626 50.7251 25.5922 51.0625 26.737C51.2244 27.2872 51.358 27.8125 51.3588 27.9044C51.3636 28.3409 51.6274 28.3472 52.8249 27.9393C53.4578 27.7238 53.9899 27.5122 54.0078 27.4689C54.0256 27.4256 54.1062 27.4156 54.1873 27.4466C54.2682 27.4775 54.3343 27.4492 54.3343 27.3836C54.3343 27.3177 54.3737 27.288 54.4215 27.3177C54.5152 27.3757 55.6085 27.0027 57.8209 26.1579C60.6413 25.0811 60.9579 24.8997 59.9485 24.9378C59.6524 24.9491 59.0642 24.9711 58.6413 24.9869ZM41.5682 28.7633C41.3424 28.8394 40.4814 29.098 39.6545 29.3379C37.9626 29.8291 38.0301 29.764 38.0306 30.9035C38.0312 33.3317 39.7839 32.5723 41.3461 29.4665C41.5374 29.0864 41.6981 28.9092 41.9228 28.831C42.2389 28.7208 42.3404 28.6024 42.1063 28.6171C42.0359 28.6215 41.7936 28.6874 41.5682 28.7633ZM13.0619 34.0181C12.3444 35.7522 11.3243 38.1828 10.7951 39.4192C10.2659 40.6556 9.84407 41.6773 9.85772 41.6896C9.87163 41.7017 10.6211 41.6736 11.5233 41.6269C12.4258 41.5801 15.6097 41.4859 18.5989 41.4176C24.1942 41.2895 24.2409 41.2867 23.9818 41.0851C23.8971 41.0192 22.883 39.9731 21.728 38.7606C18.4687 35.3391 18.0692 34.9099 16.2899 32.9159C15.8116 32.3801 15.2359 31.7419 15.0102 31.4981C14.7844 31.2539 14.5844 31.0117 14.5655 30.9597C14.4697 30.694 14.2639 31.1125 13.0619 34.0181ZM7.74639 31.4461C7.70858 31.4839 7.36654 31.5296 6.98591 31.548C6.11806 31.5897 3.56099 31.932 1.68355 32.2575C0.896297 32.394 0.215619 32.5056 0.170993 32.5056C-0.282092 32.5056 0.23767 32.7972 0.884747 32.9062C1.32182 32.9797 1.84105 33.0778 2.03846 33.1246C2.35137 33.1983 3.42659 33.3569 6.1913 33.7367C7.61618 33.9326 9.10065 34.0706 9.234 34.0197C9.33953 33.9793 9.36289 33.6766 9.33848 32.6728L9.30698 31.3776H8.56094C8.15064 31.3776 7.78392 31.4086 7.74639 31.4461ZM51.9726 31.3894C51.7581 33.9168 51.8676 34.1313 53.2819 33.9504C53.7762 33.8874 54.5958 33.7856 55.1035 33.7244C56.1622 33.5965 58.1669 33.2913 59.5128 33.0526C60.0205 32.9626 60.6108 32.8668 60.825 32.8397C61.811 32.7156 60.7471 32.3951 58.1798 32.0428C55.2836 31.6456 51.9804 31.2978 51.9726 31.3894ZM45.5974 36.2678C44.7051 36.6553 44.0095 36.8117 43.1692 36.8138C42.347 36.8162 42.289 36.8745 42.3922 37.5969C42.4966 38.3282 42.4964 38.6934 42.3903 40.1547L42.3076 41.2922L42.798 41.3594C44.1074 41.5389 46.2948 41.4402 46.4172 41.1961C47.0834 39.8676 47.3089 38.8947 47.0771 38.3487C46.97 38.0959 46.802 37.5659 46.7043 37.1714C46.6064 36.7765 46.4951 36.3345 46.4571 36.1891L46.3875 35.9247L45.5974 36.2678ZM48.0793 36.9435C48.0793 37.4751 48.2227 37.5727 48.4077 37.1669C48.5096 36.943 48.4949 36.8747 48.303 36.6826L48.0793 36.4592V36.9435ZM40.4664 37.1945L39.8776 37.7909L40.353 38.266C40.7948 38.7078 40.8308 38.7837 40.8631 39.3407C40.8925 39.846 40.8783 39.909 40.7714 39.7426C40.7021 39.6342 40.5197 39.4097 40.3664 39.2436C40.2128 39.0777 40.0598 38.8433 40.0262 38.723C39.8012 37.92 39.6421 37.8295 39.3655 38.3466C39.2599 38.544 39.3922 40.2634 39.561 40.8884L39.6789 41.3242H40.7617H41.8446L41.7745 40.6832C41.7362 40.3309 41.6356 39.7195 41.5508 39.3247C41.3148 38.2219 41.1203 37.2015 41.0862 36.8847C41.0555 36.5996 41.0518 36.6017 40.4664 37.1945Z" fill="#F69C1F"></path>
<path d="M42.8601 24.9205C42.7033 24.9989 42.5858 25.0773 42.5858 25.0969C42.5858 25.1165 42.6935 25.381 42.8307 25.6848C42.9581 25.9787 43.0463 26.2922 43.0169 26.3804C42.9679 26.498 43.0267 26.5274 43.2814 26.5274H43.6047L43.399 26.7233C43.2716 26.8311 43.1442 27.1348 43.0756 27.4777C42.8503 28.6437 42.5564 29.1531 41.9979 29.3197C41.8607 29.3589 41.0769 29.6332 40.2539 29.9272C39.4309 30.2309 38.7353 30.4464 38.7059 30.4171C38.6275 30.3485 38.6471 28.9376 38.7255 28.6339C38.7842 28.3889 38.7744 28.3889 38.5295 28.4967C38.3923 28.5653 38.2748 28.6437 38.2748 28.6829C38.2748 28.8494 36.8149 29.2805 35.7763 29.4177C35.5118 29.4569 35.1787 29.5451 35.0611 29.6332C34.8652 29.7508 34.8358 29.8292 34.8945 30.1133C34.9239 30.3191 34.9141 30.4464 34.8456 30.4464C34.7966 30.4464 34.7476 30.515 34.7476 30.5934C34.7476 30.6816 34.8847 30.76 35.1199 30.7992C35.3158 30.8286 35.7274 30.9265 36.0213 30.9951C36.3152 31.0735 36.6973 31.1323 36.8639 31.1323H37.1774L37.0794 31.4948C37.0207 31.7006 37.0011 32.2198 37.0304 32.6509C37.0794 33.4446 37.246 33.9344 37.7065 34.5811C37.9514 34.9338 38.8136 35.5021 39.5289 35.796C40.3617 36.1291 40.3617 36.3937 39.4897 37.6968C38.5981 39.0293 38.6177 38.9019 39.137 40.3617C39.3819 41.0574 39.5583 41.6355 39.5387 41.655C39.5191 41.6844 36.6679 41.6746 33.2093 41.6453L26.929 41.5865L25.3908 40.0482L23.8525 38.51L24.362 37.1481C25.5965 33.8463 26.9388 30.1231 27.8598 27.4092C27.9969 27.0074 28.1439 26.6351 28.1831 26.5959C28.2223 26.5567 28.5946 26.9095 29.0257 27.3798C29.447 27.85 30.221 28.7025 30.7305 29.2707C31.8866 30.564 36.1389 35.1592 37.0109 36.0801C37.3734 36.4525 37.9416 37.0893 38.2846 37.4812L38.9018 38.1867L39.1664 37.6282L39.4211 37.0599L39.0586 36.668C38.8626 36.4525 37.9122 35.4335 36.9423 34.4145C35.9821 33.3858 34.532 31.8475 33.7188 30.9853C29.7213 26.7331 28.3595 25.3516 28.1929 25.3516C28.1145 25.3516 27.7814 25.6456 27.4483 26.0081C27.1152 26.3804 25.5671 28.0656 24.0191 29.7606C22.471 31.4556 20.8936 33.1702 20.5115 33.5719L19.8354 34.2872L19.13 33.6111C18.7479 33.2388 17.9053 32.4158 17.2586 31.7887C16.5434 31.0931 16.0045 30.6424 15.887 30.6424C15.6812 30.6424 14.4663 31.8083 13.4767 32.9645C12.7125 33.8463 8.46028 38.412 6.31458 40.6459L4.47261 42.5662L3.72798 42.6936C2.74821 42.8504 2.07216 43.0463 1.9252 43.2325C1.82722 43.3501 1.85661 43.399 2.08196 43.4872C2.60124 43.6832 3.63 43.8693 5.3544 44.0555C14.1822 45.0549 34.1401 45.2998 49.7871 44.6042C56.6357 44.3004 61.0545 43.8008 61.0545 43.3305C61.0545 42.919 58.5756 42.527 54.1079 42.2527C50.8942 42.047 50.6199 42.0176 50.6199 41.8706C50.6199 41.8118 50.7473 41.2533 50.9138 40.6361C51.0706 40.0188 51.2078 39.431 51.2078 39.3232C51.2078 39.2252 51.0804 38.9803 50.9236 38.7843C50.4043 38.1279 49.8361 36.864 49.7185 36.0801C49.6597 35.6784 49.6401 35.3159 49.6793 35.2767C49.7185 35.2375 49.8557 35.3453 49.9928 35.5217C50.228 35.8156 50.5219 35.943 50.5219 35.747C50.5219 35.698 50.6689 35.698 50.8648 35.7372C51.051 35.7764 51.2078 35.796 51.2078 35.7764C51.2078 35.7568 51.0118 35.6294 50.7767 35.4923C50.4729 35.3159 50.1986 35.0122 49.8361 34.4537C49.3364 33.6993 49.1992 33.5523 48.2488 32.7783C47.9059 32.4942 47.759 32.2688 47.5826 31.7985C47.416 31.3184 47.2299 31.0539 46.7792 30.613C46.2207 30.0643 46.1913 30.0447 46.015 30.2015C45.7504 30.4464 45.6622 30.3289 45.5937 29.6724C45.4957 28.771 45.2409 27.6149 45.0254 27.174C44.8294 26.7429 44.4473 26.2824 44.2318 26.2138C44.124 26.1746 44.124 26.1354 44.2318 26.0081C44.5453 25.626 43.9574 24.7638 43.3892 24.7638C43.2422 24.7736 43.0071 24.8421 42.8601 24.9205ZM42.5858 29.6234C42.5858 29.6528 42.4486 29.7214 42.2918 29.7802C42.0763 29.8488 41.9195 30.0251 41.7334 30.3877C40.9887 31.8769 40.2147 32.8567 39.6366 33.082C38.9018 33.3564 38.3727 32.2492 38.6275 30.9657C38.6863 30.6914 38.7353 30.662 40.1167 30.2603C40.9103 30.0349 41.7334 29.7802 41.9489 29.7116C42.38 29.5647 42.5858 29.5353 42.5858 29.6234ZM17.2586 33.0624C18.8165 34.826 20.6291 36.8052 21.9126 38.1377C22.4808 38.7255 23.4116 39.6955 23.9701 40.2932C24.5383 40.881 25.0576 41.4003 25.1262 41.4493C25.185 41.4885 25.2438 41.5571 25.2438 41.6061C25.2438 41.6453 22.9413 41.7334 20.1294 41.802C17.3076 41.8706 14.2605 41.9588 13.3395 42.0078C12.4284 42.047 11.6641 42.0764 11.6543 42.0666C11.6347 42.0568 11.9385 41.3219 12.3206 40.4303C12.7027 39.5485 13.2024 38.363 13.4375 37.7947C15.9947 31.6026 15.9457 31.7202 16.0241 31.73C16.0535 31.73 16.612 32.3374 17.2586 33.0624ZM46.8576 37.7458C46.9555 38.1181 47.1123 38.6178 47.2103 38.8529C47.4258 39.3428 47.4062 39.5485 46.9751 40.6361C46.4755 41.9392 46.6812 41.8118 45.0352 41.8118C44.2416 41.8118 43.3794 41.7824 43.1246 41.7432L42.6543 41.6844L42.7327 40.5969C42.7817 39.9992 42.8111 39.2644 42.7915 38.9705C42.7817 38.6765 42.7621 38.2062 42.7523 37.9417L42.7327 37.4518L43.6635 37.393C44.6139 37.3245 45.0548 37.2167 46.015 36.7856L46.5538 36.5504L46.6224 36.8052C46.6616 36.9423 46.7596 37.3636 46.8576 37.7458ZM50.3064 40.5185C50.277 41.2337 50.2182 41.8608 50.1594 41.9196C50.1006 41.9784 49.5128 41.9882 48.4938 41.949L46.9262 41.8804L47.0535 41.6159C47.1319 41.4689 47.2789 41.2729 47.3964 41.1652C47.7884 40.8124 48.4644 39.7739 48.4644 39.5289C48.4644 39.3918 48.4252 39.1762 48.3762 39.0489C48.3272 38.9215 48.2586 38.4218 48.2195 37.9417L48.1509 37.0599L49.2482 38.1377L50.3456 39.2154L50.3064 40.5185ZM41.6354 38.216C41.7236 38.7647 41.8705 39.4995 41.9489 39.8425C42.0175 40.1854 42.1155 40.7537 42.1547 41.0868L42.2134 41.7138H41.1847H40.1461L40.0384 41.3415C39.9796 41.1456 39.8914 40.5479 39.8424 40.0188C39.7444 39.0489 39.7836 38.8333 40.0677 38.5982C40.1853 38.5002 40.2343 38.5394 40.3323 38.7941C40.538 39.3526 40.6164 39.4995 40.9789 39.9404L41.3219 40.3715L41.2827 39.8131C41.2435 39.2938 41.2043 39.2056 40.7928 38.7941L40.3421 38.3434L40.8516 37.7849C41.1357 37.4812 41.3806 37.2265 41.41 37.2167C41.4394 37.2167 41.5374 37.6576 41.6354 38.216Z" fill="#9D5314"></path>
</svg><style>@media (prefers-color-scheme: light) { :root { filter: none; } }
@media (prefers-color-scheme: dark) { :root { filter: none; } }
</style></svg>